<?xml version="1.0" encoding="UTF-8" standalone="no"?>
<!-- Created with Inkscape (http://www.inkscape.org/) -->

<svg
   width="191.62469mm"
   height="53.787979mm"
   viewBox="0 0 191.62469 53.787979"
   version="1.1"
   id="svg1"
   xml:space="preserve"
   xmlns:inkscape="http://www.inkscape.org/namespaces/inkscape"
   xmlns:sodipodi="http://sodipodi.sourceforge.net/DTD/sodipodi-0.dtd"
   xmlns="http://www.w3.org/2000/svg"
   xmlns:svg="http://www.w3.org/2000/svg"><sodipodi:namedview
     id="namedview1"
     pagecolor="#ffffff"
     bordercolor="#000000"
     borderopacity="0.25"
     inkscape:showpageshadow="2"
     inkscape:pageopacity="0.0"
     inkscape:pagecheckerboard="0"
     inkscape:deskcolor="#d1d1d1"
     inkscape:document-units="mm" /><defs
     id="defs1" /><g
     inkscape:label="Layer 1"
     inkscape:groupmode="layer"
     id="layer1"
     transform="translate(-10.235018,-166.67204)"><g
       id="g36"
       inkscape:export-filename="logMo.png"
       inkscape:export-xdpi="96"
       inkscape:export-ydpi="96"
       transform="matrix(0.34274396,0,0,0.34274396,6.7270271,144.89868)"><path
         style="font-variation-settings:'wght' 600;opacity:1;fill:#051f08;fill-opacity:1;stroke-width:1.38412"
         d="m 318.34895,831.85784 c -0.46948,-0.75964 32.69047,-57.90641 73.6888,-126.99282 l 74.5424,-125.61164 46.21357,-0.36501 c 25.41747,-0.20076 46.73725,0.15866 47.37731,0.79871 1.15565,1.15567 -145.92732,250.54613 -148.91258,252.49267 -2.4535,1.5998 -91.91337,1.28986 -92.9095,-0.32191 z"
         id="path4"
         transform="scale(0.26458333)" /><g
         style="fill:#235fd9;fill-opacity:1"
         id="g1"
         transform="matrix(7.6902938,0,0,7.4943733,21.371913,52.106894)"><path
           d="m 4.6280748,1.7061059 a 0.103,0.103 0 0 0 -0.09,0.05 l -5.972,10.2630001 a 0.102,0.102 0 0 0 0,0.104 l 6.039,10.26 c 0.04,0.068 0.14,0.068 0.18,0 l 5.9720002,-10.262 a 0.102,0.102 0 0 0 -0.002,-0.104 L 4.7180748,1.7561059 a 0.103,0.103 0 0 0 -0.09,-0.05 z m 2.863,0 a 0.103,0.103 0 0 0 -0.09,0.154 l 5.1860002,8.9670001 a 0.105,0.105 0 0 0 0.09,0.053 h 3.117 c 0.08,0 0.13,-0.088 0.09,-0.157 l -5.186,-8.9660001 a 0.104,0.104 0 0 0 -0.09,-0.051 H 7.4920748 Z m 5.8910002,0 a 0.102,0.102 0 0 0 -0.088,0.154 l 5.914,10.2090001 -5.914,10.209 a 0.102,0.102 0 0 0 0.088,0.154 h 3.123 a 0.1,0.1 0 0 0 0.088,-0.05 l 5.945,-10.262 a 0.1,0.1 0 0 0 0,-0.102 l -5.945,-10.2610001 a 0.1,0.1 0 0 0 -0.088,-0.051 z m -0.79,11.7000001 a 0.1,0.1 0 0 0 -0.089,0.052 l -5.1010002,8.82 c -0.04,0.069 0.01,0.154 0.09,0.154 h 3.1170002 a 0.104,0.104 0 0 0 0.09,-0.05 l 5.1,-8.82 a 0.103,0.103 0 0 0 -0.09,-0.155 h -3.118 z"
           id="path1"
           style="fill:#235fd9;fill-opacity:1" /></g><path
         style="font-variation-settings:'wght' 600;opacity:0;fill:#310303;fill-opacity:1;stroke-width:0.366215"
         d="m 45.248132,179.99199 c -12.689335,-21.04166 -23.12286,-38.49267 -23.185615,-38.78002 -0.08285,-0.37938 41.311137,-70.337645 45.594148,-77.056776 0.464066,-0.728025 0.629095,-0.786477 1.033926,-0.366215 0.891304,0.925269 46.469309,76.666611 46.469019,77.222021 -5.2e-4,0.98305 -45.703561,77.24356 -46.29064,77.24097 -0.336481,-0.002 -9.488617,-14.82571 -23.620838,-38.25998 z"
         id="path2" /><path
         style="font-variation-settings:'wght' 600;opacity:0.455882;fill:#23d938;fill-opacity:1;stroke-width:1.38412"
         d="m 393.35714,377.12705 c -41.72237,-70.39806 -75.47539,-128.61692 -75.00671,-129.37526 0.538,-0.8705 17.66524,-1.37879 46.45989,-1.37879 41.73614,0 45.78092,0.20562 47.64758,2.42221 4.27518,5.0766 151.36414,254.23735 150.71035,255.29519 -0.37821,0.61196 -21.6722,1.09477 -47.31996,1.0729 L 469.216,505.1235 Z"
         id="path3"
         transform="scale(0.26458333)" /><path
         style="font-variation-settings:'wght' 600;opacity:0.455882;fill:#f20505;fill-opacity:1;stroke:none;stroke-width:1.95744;stroke-opacity:1"
         d="m 490.33833,830.19166 c 0,-0.94581 38.3761,-66.29482 85.28023,-145.21999 46.90412,-78.92519 84.9161,-144.89276 84.47106,-146.5946 -0.44505,-1.70185 -38.51655,-66.49805 -84.60334,-143.99154 -46.08679,-77.49349 -84.20573,-142.45493 -84.70877,-144.35876 -0.85867,-3.24982 1.9406,-3.42938 45.77382,-2.93616 l 46.68843,0.52535 73.98047,124.29734 c 40.68925,68.36354 79.73958,134.15132 86.77849,146.19505 l 12.79801,21.89772 -86.73339,145.95262 -86.73339,145.95264 h -46.49581 c -25.5727,0 -46.49581,-0.77385 -46.49581,-1.71967 z"
         id="path36"
         transform="scale(0.26458333)" /><path
         style="font-variation-settings:'wght' 600;opacity:0.455882;fill:#f20505;fill-opacity:1;stroke:none;stroke-width:0.24468;stroke-opacity:1"
         d="m 432.72136,443.29583 c -44.28033,-74.72089 -57.05424,-96.32269 -69.0506,-116.77063 -29.62018,-50.48796 -45.4984,-78.23934 -45.03215,-78.7056 1.02879,-1.02879 41.03201,-1.70784 71.01398,-1.20547 19.03651,0.31898 21.20323,0.5421 22.68168,2.33571 3.77024,4.57396 114.7593,192.0064 145.06436,244.97701 5.31476,9.28973 5.62031,9.8801 5.23636,10.11739 -1.02184,0.63154 -21.47613,0.96337 -59.57331,0.96651 l -33.76582,0.003 z"
         id="path35"
         transform="scale(0.26458333)" /></g><text
       xml:space="preserve"
       style="font-style:normal;font-variant:normal;font-weight:normal;font-stretch:normal;font-size:32.751px;font-family:'Calisto MT';-inkscape-font-specification:'Calisto MT, @wght=600';font-variant-ligatures:normal;font-variant-caps:normal;font-variant-numeric:normal;font-variant-east-asian:normal;font-variation-settings:'wght' 600;opacity:1;fill:#813678;fill-opacity:1;stroke:none;stroke-width:0.322169;stroke-opacity:1"
       x="76.564766"
       y="206.1003"
       id="text37"><tspan
         sodipodi:role="line"
         id="tspan37"
         style="font-style:normal;font-variant:normal;font-weight:normal;font-stretch:normal;font-size:32.751px;font-family:'Calisto MT';-inkscape-font-specification:'Calisto MT, @wght=600';font-variant-ligatures:normal;font-variant-caps:normal;font-variant-numeric:normal;font-variant-east-asian:normal;font-variation-settings:'wght' 600;fill:#813678;fill-opacity:1;stroke-width:0.322169"
         x="76.564766"
         y="206.1003">HiveHub</tspan></text><path
       style="font-variation-settings:'wght' 600;opacity:1;fill:#361733;fill-opacity:1;stroke:none;stroke-width:0.157657;stroke-opacity:1"
       d="m 117.38336,201.1594 c -3.26198,-8.22232 -3.57603,-8.79682 -5.02165,-9.18608 -0.47488,-0.12788 -0.61003,-0.24151 -0.61,-0.51292 l 4e-5,-0.34865 h 3.54726 c 3.53082,0 3.54726,0.002 3.54723,0.34087 -2e-5,0.27477 -0.12222,0.36152 -0.63021,0.44734 -0.3466,0.0586 -0.79001,0.23698 -0.98535,0.39649 l -0.35517,0.29002 0.66388,1.97328 c 1.03458,3.07515 2.90312,7.71025 3.04888,7.56308 0.0723,-0.073 0.81447,-1.90642 1.64919,-4.07419 1.0191,-2.64663 1.54733,-4.24051 1.60797,-4.85188 l 0.0903,-0.91047 -0.65288,-0.25646 c -0.47645,-0.18715 -0.6529,-0.34585 -0.65294,-0.58727 -6e-5,-0.32261 0.0644,-0.33081 2.60115,-0.33081 2.54286,0 2.60121,0.007 2.60139,0.33331 1.4e-4,0.24814 -0.17502,0.40022 -0.68552,0.59518 -0.37713,0.14403 -0.84428,0.43067 -1.0381,0.63698 -0.38719,0.41215 -1.60829,3.29983 -4.1211,9.74567 -1.54318,3.95853 -1.6679,4.21645 -2.03792,4.21435 -0.37076,-0.002 -0.52299,-0.32702 -2.56645,-5.47784 z"
       id="path37" /><path
       style="font-variation-settings:'wght' 600;opacity:1;fill:#813678;fill-opacity:1;stroke:none;stroke-width:0.157657;stroke-opacity:1"
       d="m 77.382583,205.74515 c -2.9e-5,-0.30159 0.150523,-0.376 1.221803,-0.60387 1.800493,-0.38296 1.991194,-0.45887 2.204867,-0.87766 0.24249,-0.47527 0.28845,-18.02095 0.04886,-18.65112 -0.162209,-0.42664 -0.567672,-0.58668 -2.37197,-0.93626 -0.906715,-0.17568 -1.030074,-0.24323 -1.070847,-0.58645 l -0.04608,-0.3879 h 5.137171 5.137175 l -0.04608,0.3827 c -0.0423,0.35127 -0.168369,0.40594 -1.535226,0.66583 -0.924022,0.17568 -1.590068,0.38943 -1.755086,0.56324 -0.229674,0.24191 -0.280123,0.84454 -0.369915,4.4186 l -0.10397,4.13848 h 5.839883 5.839884 v -4.15859 c 0,-3.56678 -0.03483,-4.18751 -0.244771,-4.36174 -0.134625,-0.11173 -0.932763,-0.35611 -1.773637,-0.54307 -1.390198,-0.30909 -1.533045,-0.37464 -1.574969,-0.72268 l -0.0461,-0.38277 h 5.137168 5.137167 l -0.0461,0.38492 c -0.0411,0.34377 -0.1769,0.41344 -1.27008,0.65182 -1.776456,0.38736 -2.113966,0.55759 -2.227106,1.12329 -0.05288,0.2644 -0.09615,4.46448 -0.09615,9.33353 0,7.55373 0.03418,8.9016 0.232919,9.18534 0.215853,0.30817 1.033947,0.57101 2.880807,0.92556 0.39559,0.0759 0.51238,0.17855 0.51238,0.45013 v 0.35177 l -5.123818,-0.01 c -5.110744,-0.01 -5.123811,-0.0104 -5.123837,-0.34346 -1.9e-5,-0.29376 0.193749,-0.37919 1.611889,-0.71064 1.36648,-0.31937 1.642183,-0.43657 1.810725,-0.7697 0.145044,-0.28668 0.199442,-1.53354 0.20114,-4.61027 l 0.0023,-4.21731 h -5.833288 -5.833292 l 0.01862,2.40426 c 0.01025,1.32234 0.06345,3.36202 0.118243,4.53262 l 0.09962,2.12837 0.867112,0.26892 c 0.47691,0.14791 1.275045,0.34804 1.773634,0.44473 0.779758,0.15123 0.906525,0.22493 0.906525,0.52709 v 0.35129 l -5.123801,-0.008 -5.123802,-0.008 z"
       id="path38" /><path
       style="font-variation-settings:'wght' 600;opacity:1;fill:#235fd9;fill-opacity:1;stroke:none;stroke-width:0.315313;stroke-opacity:1"
       d="m 77.303722,205.74515 c 0,-0.14583 0.768064,-0.43702 1.706809,-0.6471 0.961594,-0.2152 1.787613,-0.59254 1.891877,-0.86425 0.101789,-0.26525 0.18507,-4.56814 0.18507,-9.56196 0,-6.8815 -0.09542,-9.15777 -0.394142,-9.40225 -0.216778,-0.17741 -1.021595,-0.44539 -1.788479,-0.59552 -2.886222,-0.56499 -1.620665,-0.89335 3.443197,-0.89335 3.518869,0 5.044877,0.10703 5.045209,0.35384 2.61e-4,0.19462 -0.595523,0.44915 -1.323964,0.56563 -2.117471,0.3386 -2.144005,0.40184 -2.144005,5.11009 v 4.21812 h 5.833292 5.833288 v -4.24564 c 0,-4.71726 0.04155,-4.62546 -2.291823,-5.0632 -0.647141,-0.12141 -1.176619,-0.38231 -1.176619,-0.57979 0,-0.25308 1.442431,-0.35905 4.887352,-0.35905 3.444916,0 4.887356,0.10597 4.887356,0.35905 0,0.19748 -0.52948,0.45838 -1.17662,0.57979 -2.454928,0.46054 -2.29239,-0.25225 -2.287001,10.02938 0.0026,5.0665 0.110959,9.37868 0.240674,9.58262 0.129711,0.20394 0.907939,0.54004 1.729397,0.74689 0.82145,0.20684 1.49355,0.50112 1.49355,0.65396 0,0.15283 -2.199313,0.27788 -4.887356,0.27788 -2.688043,0 -4.887352,-0.12505 -4.887352,-0.27788 0,-0.15284 0.672096,-0.44712 1.493549,-0.65396 0.821451,-0.20685 1.599679,-0.54295 1.729394,-0.74689 0.129712,-0.20394 0.238015,-2.3218 0.24067,-4.70636 l 0.0048,-4.33555 h -5.841719 -5.84172 l 0.08726,4.64843 0.08726,4.64845 1.655394,0.44218 c 0.910466,0.2432 1.655391,0.56355 1.655391,0.71188 0,0.14834 -2.270254,0.2697 -5.045008,0.2697 -2.774755,0 -5.045006,-0.11931 -5.045006,-0.26514 z"
       id="path39" /><path
       style="font-variation-settings:'wght' 600;opacity:1;fill:#235fd9;fill-opacity:1;stroke:none;stroke-width:0.0557401;stroke-opacity:1"
       d="m 103.73801,205.83721 v -0.43536 l 0.51559,-0.13139 c 0.70062,-0.17853 1.37219,-0.42598 1.67184,-0.61601 0.29972,-0.19008 0.33916,-0.31303 0.43921,-1.36901 0.0877,-0.92614 0.0823,-8.43371 -0.007,-9.05775 -0.0731,-0.51355 -0.19794,-0.7652 -0.44899,-0.90535 -0.17262,-0.0964 -0.26916,-0.10403 -0.94476,-0.0749 -0.41387,0.0178 -0.85909,0.0483 -0.98939,0.0678 l -0.23689,0.0353 v -0.42324 -0.42324 l 0.23689,-0.0627 c 0.48825,-0.12929 1.65237,-0.51985 2.27141,-0.76202 0.59465,-0.23264 2.22767,-1.01501 2.38021,-1.14034 0.0905,-0.0744 0.2512,-0.0164 0.40327,0.14551 0.12465,0.13268 0.12513,0.13972 0.0637,0.93269 -0.14615,1.88759 -0.18082,3.03252 -0.20984,6.93039 -0.0378,5.07835 -0.004,5.59659 0.39858,6.02091 0.14102,0.14882 0.33798,0.23297 1.1862,0.50678 l 1.0171,0.32833 1.6e-4,0.41805 1.6e-4,0.41805 -0.43199,-0.0377 c -1.02583,-0.0896 -3.69091,-0.11589 -5.28905,-0.0521 -0.91548,0.0366 -1.74604,0.0791 -1.84568,0.0946 l -0.18115,0.0282 z"
       id="path41" /><path
       style="font-variation-settings:'wght' 600;opacity:1;fill:#235fd9;fill-opacity:1;stroke:none;stroke-width:0.22296;stroke-opacity:1"
       d="m 132.42374,206.17312 c -3.81596,-1.39901 -5.38522,-7.38485 -3.07524,-11.73032 1.31272,-2.46946 3.58903,-3.82507 6.41213,-3.81861 2.68646,0.006 4.11023,0.98157 4.79411,3.28445 0.4496,1.51398 0.42245,1.90171 -0.16769,2.39402 -0.41892,0.34947 -0.88776,0.41991 -2.84274,0.42707 -1.28759,0.005 -3.33268,0.0742 -4.54464,0.15447 l -2.20357,0.14591 0.1408,1.69236 c 0.10227,1.22922 0.3267,2.07151 0.82007,3.0778 0.91868,1.87374 1.66845,2.38028 3.66824,2.47825 1.4486,0.071 1.68761,0.013 3.30019,-0.80016 1.54881,-0.781 1.7602,-0.8361 1.93741,-0.50498 0.15941,0.29785 -0.10073,0.59591 -1.30976,1.50068 -0.82976,0.62095 -1.8513,1.30618 -2.27006,1.52273 -1.05849,0.54737 -3.40497,0.63617 -4.65925,0.17633 z m 3.28115,-10.47553 2.5083,-0.14453 v -0.58757 c 0,-0.32317 -0.22575,-1.03444 -0.50166,-1.58062 -0.6701,-1.32649 -2.04165,-1.94982 -3.4537,-1.56959 -1.56596,0.42167 -2.62051,1.59313 -3.07485,3.41573 -0.15102,0.60581 -0.1399,0.61313 0.93038,0.61213 0.59578,-6.5e-4 2.21197,-0.0661 3.59153,-0.14555 z"
       id="path42" /><path
       style="font-variation-settings:'wght' 600;opacity:1;fill:#235fd9;fill-opacity:1;stroke:none;stroke-width:0.22296;stroke-opacity:1"
       d="m 173.22233,205.82161 c -1.7347,-0.88626 -1.88114,-1.42941 -2.01107,-7.45871 -0.0754,-3.49854 -0.19542,-5.25709 -0.37079,-5.43198 -0.14261,-0.14224 -0.71953,-0.31049 -1.28201,-0.37389 -0.75606,-0.0852 -1.02271,-0.21137 -1.02271,-0.48386 0,-0.30206 0.42821,-0.41945 2.37259,-0.65039 1.30493,-0.15499 2.48003,-0.30216 2.61134,-0.32703 0.16443,-0.0312 0.24136,1.72416 0.24718,5.64024 0.009,6.25907 0.067,6.57293 1.33527,7.2559 0.93805,0.50518 3.0116,0.36225 3.85246,-0.26555 1.56547,-1.16878 1.895,-2.60634 1.68928,-7.36934 -0.15868,-3.674 -0.24212,-3.85725 -1.75641,-3.85725 -0.79874,0 -0.9874,-0.076 -0.9874,-0.39758 0,-0.33891 0.35015,-0.43917 2.3726,-0.67939 1.30493,-0.15499 2.48383,-0.30216 2.61978,-0.32703 0.17597,-0.0322 0.24718,1.69501 0.24718,5.99501 0,6.99537 -0.0217,6.91065 1.72053,6.70431 1.64579,-0.19492 1.38902,0.3791 -0.43851,0.98029 -0.82774,0.27229 -1.98532,0.73556 -2.5724,1.02949 -0.58708,0.29392 -1.14751,0.4849 -1.24541,0.4244 -0.0979,-0.0605 -0.13087,-0.67818 -0.0733,-1.37262 l 0.10471,-1.26262 -1.30261,1.061 c -0.71644,0.58354 -1.62963,1.19762 -2.02932,1.36462 -1.1286,0.47156 -2.94271,0.38354 -4.081,-0.19802 z"
       id="path43" /><path
       style="font-variation-settings:'wght' 600;opacity:1;fill:#815450;fill-opacity:1;stroke:none;stroke-width:0.22296;stroke-opacity:1"
       d="m 142.67239,205.78108 c 0,-0.21582 0.54669,-0.44086 1.68752,-0.69467 1.41256,-0.31427 1.72136,-0.46443 1.89516,-0.92157 0.11563,-0.30411 0.20764,-4.49175 0.20764,-9.45 0,-10.28216 0.17009,-9.54486 -2.30996,-10.01281 -0.97923,-0.18477 -1.48036,-0.38399 -1.48036,-0.58852 0,-0.25466 0.90452,-0.3092 5.12808,-0.3092 4.19319,0 5.12808,0.0557 5.12808,0.30544 0,0.19678 -0.49567,0.40291 -1.3935,0.57949 -2.33511,0.45926 -2.17386,0.0966 -2.17386,4.88957 v 4.19809 l 2.58705,0.15931 c 1.42289,0.0876 4.03152,0.0878 5.79696,3.2e-4 l 3.20991,-0.15899 -0.003,-4.03903 c -0.002,-2.22147 -0.0791,-4.15798 -0.17149,-4.30336 -0.0925,-0.14538 -0.89357,-0.42934 -1.78027,-0.63102 -1.07179,-0.24377 -1.61218,-0.47279 -1.61218,-0.68325 0,-0.26407 0.8319,-0.31657 5.0166,-0.31657 4.23316,0 5.0166,0.0505 5.0166,0.32322 0,0.21811 -0.44679,0.41112 -1.37388,0.59352 -2.35034,0.4624 -2.19348,-0.26231 -2.19348,10.13444 0,5.47475 0.0862,9.20553 0.2183,9.45244 0.13188,0.24641 0.68358,0.51314 1.3935,0.67369 1.85224,0.4189 1.95556,0.46113 1.95556,0.79927 0,0.26779 -0.81092,0.31942 -5.0166,0.31942 -4.25176,0 -5.0166,-0.0497 -5.0166,-0.32585 0,-0.30811 0.60403,-0.53481 2.39867,-0.90023 0.39956,-0.0814 0.82597,-0.33384 0.94758,-0.56106 0.12399,-0.23168 0.22111,-2.28025 0.22111,-4.66404 v -4.2509 h -5.79696 -5.79696 v 4.54363 4.54363 l 0.61314,0.23607 c 0.33723,0.12984 0.9643,0.3 1.3935,0.37814 1.307,0.23794 1.56072,0.34868 1.56072,0.68119 0,0.26799 -0.82564,0.31942 -5.12808,0.31942 -4.30108,0 -5.12808,-0.0515 -5.12808,-0.31923 z"
       id="path44" /></g></svg>
