<?xml version="1.0" encoding="UTF-8" standalone="no"?>
<!-- Created with Inkscape (http://www.inkscape.org/) -->

<svg
   width="190.00076mm"
   height="156.93341mm"
   viewBox="0 0 190.00076 156.93341"
   version="1.1"
   id="svg1"
   xml:space="preserve"
   xmlns:inkscape="http://www.inkscape.org/namespaces/inkscape"
   xmlns:sodipodi="http://sodipodi.sourceforge.net/DTD/sodipodi-0.dtd"
   xmlns="http://www.w3.org/2000/svg"
   xmlns:svg="http://www.w3.org/2000/svg"><sodipodi:namedview
     id="namedview1"
     pagecolor="#ffffff"
     bordercolor="#000000"
     borderopacity="0.25"
     inkscape:showpageshadow="2"
     inkscape:pageopacity="0.0"
     inkscape:pagecheckerboard="0"
     inkscape:deskcolor="#d1d1d1"
     inkscape:document-units="mm" /><defs
     id="defs1" /><g
     inkscape:label="Layer 1"
     inkscape:groupmode="layer"
     id="layer1"
     transform="translate(-10.235017,-63.526602)"><g
       id="g36"><path
         style="font-variation-settings:'wght' 600;opacity:1;fill:#051f08;fill-opacity:1;stroke-width:1.38412"
         d="m 318.34895,831.85784 c -0.46948,-0.75964 32.69047,-57.90641 73.6888,-126.99282 l 74.5424,-125.61164 46.21357,-0.36501 c 25.41747,-0.20076 46.73725,0.15866 47.37731,0.79871 1.15565,1.15567 -145.92732,250.54613 -148.91258,252.49267 -2.4535,1.5998 -91.91337,1.28986 -92.9095,-0.32191 z"
         id="path4"
         transform="scale(0.26458333)" /><g
         style="fill:#235fd9;fill-opacity:1"
         id="g1"
         transform="matrix(7.6902938,0,0,7.4943733,21.371913,52.106894)"><path
           d="m 4.6280748,1.7061059 a 0.103,0.103 0 0 0 -0.09,0.05 l -5.972,10.2630001 a 0.102,0.102 0 0 0 0,0.104 l 6.039,10.26 c 0.04,0.068 0.14,0.068 0.18,0 l 5.9720002,-10.262 a 0.102,0.102 0 0 0 -0.002,-0.104 L 4.7180748,1.7561059 a 0.103,0.103 0 0 0 -0.09,-0.05 z m 2.863,0 a 0.103,0.103 0 0 0 -0.09,0.154 l 5.1860002,8.9670001 a 0.105,0.105 0 0 0 0.09,0.053 h 3.117 c 0.08,0 0.13,-0.088 0.09,-0.157 l -5.186,-8.9660001 a 0.104,0.104 0 0 0 -0.09,-0.051 H 7.4920748 Z m 5.8910002,0 a 0.102,0.102 0 0 0 -0.088,0.154 l 5.914,10.2090001 -5.914,10.209 a 0.102,0.102 0 0 0 0.088,0.154 h 3.123 a 0.1,0.1 0 0 0 0.088,-0.05 l 5.945,-10.262 a 0.1,0.1 0 0 0 0,-0.102 l -5.945,-10.2610001 a 0.1,0.1 0 0 0 -0.088,-0.051 z m -0.79,11.7000001 a 0.1,0.1 0 0 0 -0.089,0.052 l -5.1010002,8.82 c -0.04,0.069 0.01,0.154 0.09,0.154 h 3.1170002 a 0.104,0.104 0 0 0 0.09,-0.05 l 5.1,-8.82 a 0.103,0.103 0 0 0 -0.09,-0.155 h -3.118 z"
           id="path1"
           style="fill:#235fd9;fill-opacity:1" /></g><path
         style="font-variation-settings:'wght' 600;opacity:0;fill:#310303;fill-opacity:1;stroke-width:0.366215"
         d="m 45.248132,179.99199 c -12.689335,-21.04166 -23.12286,-38.49267 -23.185615,-38.78002 -0.08285,-0.37938 41.311137,-70.337645 45.594148,-77.056776 0.464066,-0.728025 0.629095,-0.786477 1.033926,-0.366215 0.891304,0.925269 46.469309,76.666611 46.469019,77.222021 -5.2e-4,0.98305 -45.703561,77.24356 -46.29064,77.24097 -0.336481,-0.002 -9.488617,-14.82571 -23.620838,-38.25998 z"
         id="path2" /><path
         style="font-variation-settings:'wght' 600;opacity:0.455882;fill:#23d938;fill-opacity:1;stroke-width:1.38412"
         d="m 393.35714,377.12705 c -41.72237,-70.39806 -75.47539,-128.61692 -75.00671,-129.37526 0.538,-0.8705 17.66524,-1.37879 46.45989,-1.37879 41.73614,0 45.78092,0.20562 47.64758,2.42221 4.27518,5.0766 151.36414,254.23735 150.71035,255.29519 -0.37821,0.61196 -21.6722,1.09477 -47.31996,1.0729 L 469.216,505.1235 Z"
         id="path3"
         transform="scale(0.26458333)" /><path
         style="font-variation-settings:'wght' 600;opacity:0.455882;fill:#f20505;fill-opacity:1;stroke:none;stroke-width:1.95744;stroke-opacity:1"
         d="m 490.33833,830.19166 c 0,-0.94581 38.3761,-66.29482 85.28023,-145.21999 46.90412,-78.92519 84.9161,-144.89276 84.47106,-146.5946 -0.44505,-1.70185 -38.51655,-66.49805 -84.60334,-143.99154 -46.08679,-77.49349 -84.20573,-142.45493 -84.70877,-144.35876 -0.85867,-3.24982 1.9406,-3.42938 45.77382,-2.93616 l 46.68843,0.52535 73.98047,124.29734 c 40.68925,68.36354 79.73958,134.15132 86.77849,146.19505 l 12.79801,21.89772 -86.73339,145.95262 -86.73339,145.95264 h -46.49581 c -25.5727,0 -46.49581,-0.77385 -46.49581,-1.71967 z"
         id="path36"
         transform="scale(0.26458333)" /><path
         style="font-variation-settings:'wght' 600;opacity:0.455882;fill:#f20505;fill-opacity:1;stroke:none;stroke-width:0.24468;stroke-opacity:1"
         d="m 432.72136,443.29583 c -44.28033,-74.72089 -57.05424,-96.32269 -69.0506,-116.77063 -29.62018,-50.48796 -45.4984,-78.23934 -45.03215,-78.7056 1.02879,-1.02879 41.03201,-1.70784 71.01398,-1.20547 19.03651,0.31898 21.20323,0.5421 22.68168,2.33571 3.77024,4.57396 114.7593,192.0064 145.06436,244.97701 5.31476,9.28973 5.62031,9.8801 5.23636,10.11739 -1.02184,0.63154 -21.47613,0.96337 -59.57331,0.96651 l -33.76582,0.003 z"
         id="path35"
         transform="scale(0.26458333)" /></g></g></svg>
